<svg width="20" height="25" viewBox="0 0 20 25" fill="none" xmlns="http://www.w3.org/2000/svg">
<path d="M16.4773 9.09091C16.4773 5.32533 13.4247 2.27273 9.65909 2.27273C5.89351 2.27273 2.84091 5.32533 2.84091 9.09091V18.1818H16.4773V9.09091ZM18.75 18.9394L19.2045 19.5455C19.3928 19.7965 19.3419 20.1526 19.0909 20.3409C18.9926 20.4147 18.873 20.4545 18.75 20.4545H0.568182C0.254386 20.4545 0 20.2001 0 19.8864C0 19.7634 0.0398749 19.6438 0.113636 19.5455L0.568182 18.9394V9.09091C0.568182 4.07014 4.63832 0 9.65909 0C14.6799 0 18.75 4.07014 18.75 9.09091V18.9394ZM6.81818 21.5909H12.5C12.5 23.1599 11.2281 24.4318 9.65909 24.4318C8.09011 24.4318 6.81818 23.1599 6.81818 21.5909Z" fill="#181D31"/>
</svg>
