<svg width="20" height="19" viewBox="0 0 20 19" fill="none" xmlns="http://www.w3.org/2000/svg">
<path d="M14.5 0C17.5376 0 20 2.5 20 6C20 13 12.5 17 10 18.5C7.5 17 0 13 0 6C0 2.5 2.5 0 5.5 0C7.35997 0 9 1 10 2C11 1 12.64 0 14.5 0ZM13 16C9 16 4.2551 9.0926 5 8.5C7.9788 6.1301 17 12.4435 17 9.5C16.5 11.5 15.963 10 14 10C12.9241 10 14.3451 11.1549 13.5 12L7 8.5L8.5858 3.41421C7.74068 2.56911 7.5759 13.5 6.5 13.5C4.55906 13.5 6.5 6.6565 6.5 9C6.5 11.9435 5.60693 0.1301 8.5858 2.5C9.33066 3.0926 8.6184 9.9447 9.5 10.5C9.7985 10.6881 9.6611 3.7977 10 4C10.3389 3.7977 12.7015 16.1881 13 16Z" fill="#77BC1F"/>
</svg>
