<svg width="16" height="19" viewBox="0 0 16 19" fill="none" xmlns="http://www.w3.org/2000/svg">
<path d="M3 8.33337V16.6667H13.8333V8.33337H3ZM13 6.66671H14.6667C15.1269 6.66671 15.5 7.03981 15.5 7.50004V17.5C15.5 17.9603 15.1269 18.3334 14.6667 18.3334H1.33333C0.8731 18.3334 0.5 17.9603 0.5 17.5V7.50004C0.5 7.03981 0.8731 6.66671 1.33333 6.66671H3V5.83337C3 3.07195 5.23857 0.833374 8 0.833374C10.7614 0.833374 13 3.07195 13 5.83337V6.66671ZM11.3333 6.66671V5.83337C11.3333 3.99242 9.84092 2.50004 8 2.50004C6.15905 2.50004 4.66667 3.99242 4.66667 5.83337V6.66671H11.3333ZM3.83333 9.16671H5.5V10.8334H3.83333V9.16671ZM3.83333 11.6667H5.5V13.3334H3.83333V11.6667ZM3.83333 14.1667H5.5V15.8334H3.83333V14.1667Z" fill="#A7AEC1"/>
</svg>
