<svg width="25" height="25" viewBox="0 0 25 25" fill="none" xmlns="http://www.w3.org/2000/svg">
<path d="M19.699 17.3091L24.1601 21.7702L22.687 23.2434L18.2258 18.7822C16.6218 20.0655 14.5875 20.8333 12.375 20.8333C7.2 20.8333 3 16.6333 3 11.4583C3 6.28325 7.2 2.08325 12.375 2.08325C17.55 2.08325 21.75 6.28325 21.75 11.4583C21.75 13.6708 20.9823 15.705 19.699 17.3091ZM17.6091 16.5362C18.8828 15.2235 19.6667 13.4328 19.6667 11.4583C19.6667 7.42961 16.4036 4.16659 12.375 4.16659C8.34635 4.16659 5.08333 7.42961 5.08333 11.4583C5.08333 15.4869 8.34635 18.7499 12.375 18.7499C14.3496 18.7499 16.1402 17.9661 17.4529 16.6923L17.6091 16.5362Z" fill="#181D31"/>
</svg>
