<svg width="20" height="20" viewBox="0 0 20 20" fill="none" xmlns="http://www.w3.org/2000/svg">
<path d="M3.33325 18.3334C3.33325 14.6515 6.31802 11.6667 9.99992 11.6667C13.6818 11.6667 16.6666 14.6515 16.6666 18.3334H14.9999C14.9999 15.572 12.7613 13.3334 9.99992 13.3334C7.23849 13.3334 4.99992 15.572 4.99992 18.3334H3.33325ZM9.99992 10.8334C7.23742 10.8334 4.99992 8.59587 4.99992 5.83337C4.99992 3.07087 7.23742 0.833374 9.99992 0.833374C12.7624 0.833374 14.9999 3.07087 14.9999 5.83337C14.9999 8.59587 12.7624 10.8334 9.99992 10.8334ZM9.99992 9.16671C11.8416 9.16671 13.3333 7.67504 13.3333 5.83337C13.3333 3.99171 11.8416 2.50004 9.99992 2.50004C8.15825 2.50004 6.66659 3.99171 6.66659 5.83337C6.66659 7.67504 8.15825 9.16671 9.99992 9.16671Z" fill="#A7AEC1"/>
</svg>
